<svg width="22" height="26" viewBox="0 0 22 26" fill="none" xmlns="http://www.w3.org/2000/svg">
<path d="M9.96451 7.69027V5.18341C9.96451 4.78384 9.78134 4.59911 9.40298 4.59911H8.78396V8.2732H9.40298C9.78268 8.2732 9.96451 8.08847 9.96451 7.69027ZM7.95637 16.5847L7.61945 17.4441H8.28927L7.95637 16.5847Z" fill="white"/>
<path fill-rule="evenodd" clip-rule="evenodd" d="M2.01215 0H19.9878C21.4625 0 22 0.548719 22 2.03614V20.1562C22 20.3888 21.9599 20.8089 21.885 20.9895C21.8256 21.1612 21.7297 21.3173 21.6043 21.4466C21.4625 21.582 21.2165 21.723 21.0989 21.7777L11.5689 25.8828C11.3887 25.9602 11.1953 26 11 26C10.8047 26 10.6113 25.9602 10.4311 25.8828L0.902461 21.7777C0.720049 21.6912 0.549657 21.5803 0.395746 21.4479C0.270115 21.3183 0.174213 21.1617 0.11498 20.9895C0.0414463 20.8103 0 20.3902 0 20.1575V2.03614C0 0.548719 0.538803 0 2.01215 0ZM13.6532 3.26084H12.1478V13.2295H13.6532V3.26084ZM13.0997 15.6132H12.2253L11.5114 16.7831L10.8001 15.6132H9.9244V18.6345H10.7359V16.9077L11.4954 18.0817H11.5127L12.2761 16.8994V18.6345H13.0997V15.6132ZM9.64096 3.26084H7.27985V13.2308H8.78396V9.61284H9.64096C10.8643 9.61284 11.4699 9.00118 11.4699 7.76143V5.11225C11.4699 3.8725 10.8643 3.26084 9.64096 3.26084ZM6.5258 3.26084H3.178V13.2308H6.55254V11.8488H4.68344V8.84381H6.4536V7.46175H4.68344V4.6429H6.52446L6.5258 3.26084ZM5.46424 18.5648C5.68083 18.4754 5.86845 18.3645 6.0271 18.2322V16.8721H4.65536V17.4878H5.24363V17.8532C5.0999 17.9417 4.93392 17.985 4.76633 17.9777C4.65871 17.9805 4.55163 17.9611 4.45149 17.9207C4.35134 17.8803 4.26017 17.8196 4.18341 17.7424C4.11096 17.6659 4.05375 17.5757 4.01495 17.4769C3.97532 17.3693 3.95494 17.2553 3.95479 17.1403V17.1321C3.95383 16.9148 4.0331 16.7051 4.17672 16.545C4.24518 16.4679 4.32882 16.4064 4.42214 16.3646C4.51546 16.3229 4.61636 16.3018 4.7182 16.3028C4.86616 16.3028 4.99629 16.3275 5.1086 16.3767C5.2286 16.43 5.34031 16.501 5.44017 16.5875L5.92549 15.9977C5.76857 15.8606 5.59058 15.751 5.39872 15.6734C5.17962 15.5913 4.94746 15.5518 4.71419 15.5571C4.48245 15.5571 4.26853 15.5972 4.07244 15.6775C3.88291 15.755 3.70957 15.8688 3.56171 16.0127C3.4191 16.155 3.30769 16.3211 3.22747 16.5108C3.14725 16.7015 3.1067 16.9072 3.1058 17.128V17.1375C3.1058 17.3656 3.1468 17.5745 3.22881 17.7643C3.3117 17.9558 3.42579 18.1209 3.57107 18.2596C3.71547 18.3974 3.8866 18.505 4.08447 18.5825C4.28324 18.6601 4.49894 18.6989 4.73157 18.6989C5.00431 18.6989 5.24898 18.6542 5.46557 18.5648M7.56463 15.5913L6.29183 18.6345H7.16354L7.37745 18.0954H8.52859L8.74786 18.6345H9.63428L8.36281 15.5913H7.56463ZM14.6145 22.0035L14.6319 21.9789L14.6373 21.9474C14.637 21.9264 14.6288 21.9063 14.6145 21.8913C14.6079 21.8835 14.5996 21.8774 14.5904 21.8734C14.5811 21.8694 14.5711 21.8675 14.561 21.868H7.45099C7.43048 21.8683 7.41087 21.8766 7.39617 21.8913L7.37879 21.9159L7.37211 21.9474C7.37275 21.9686 7.38138 21.9887 7.39617 22.0035C7.40241 22.0108 7.41043 22.0163 7.42024 22.0199L10.8696 23.5183C10.9079 23.535 10.949 23.5437 10.9906 23.5437C11.0322 23.5437 11.0734 23.535 11.1116 23.5183L14.5878 22.0199L14.6145 22.0035ZM13.6532 18.6345H16.0772V17.923H14.4728V17.4441H15.906V16.7831H14.4728V16.3261H16.0558V15.6145H13.6546L13.6532 18.6345ZM14.4474 5.02604V11.4643C14.4474 12.704 15.0531 13.3157 16.2764 13.3157H17.0211C18.2444 13.3157 18.8487 12.7026 18.8487 11.4643V9.14075H17.3727V11.3917C17.3727 11.7899 17.1895 11.9747 16.8112 11.9747H16.5304C16.136 11.9747 15.9528 11.7899 15.9528 11.3917V5.0972C15.9528 4.69763 16.1347 4.5129 16.5291 4.5129H16.7831C17.1615 4.5129 17.3446 4.69763 17.3446 5.09583V7.04714H18.8207V5.01236C18.8207 3.77261 18.2297 3.17463 17.0064 3.17463H16.2751C15.0531 3.17463 14.4474 3.78766 14.4474 5.02604ZM18.8193 18.12C18.8782 17.9902 18.9079 17.8485 18.9062 17.7054V17.6958C18.912 17.5742 18.8877 17.4529 18.8355 17.3434C18.7834 17.2339 18.7052 17.1395 18.6081 17.0691C18.4999 16.9909 18.3809 16.9296 18.2551 16.8871C18.1037 16.8335 17.9492 16.7891 17.7925 16.7544C17.7068 16.7363 17.6221 16.7139 17.5385 16.6873C17.4846 16.6693 17.4319 16.6479 17.3807 16.623C17.3481 16.6068 17.32 16.5823 17.2992 16.5519C17.2832 16.5247 17.2753 16.4933 17.2765 16.4616V16.4534C17.2765 16.3986 17.301 16.3525 17.35 16.3151C17.4179 16.2743 17.496 16.2548 17.5746 16.259C17.7083 16.259 17.8465 16.2841 17.9891 16.3343C18.1335 16.3845 18.2738 16.4588 18.4102 16.5573L18.8247 15.9662C18.6623 15.8334 18.478 15.7314 18.2805 15.6652C18.08 15.5967 17.8514 15.563 17.5947 15.5639C17.4155 15.5639 17.2551 15.5876 17.1133 15.6351C16.98 15.6771 16.856 15.7454 16.7483 15.8362C16.6479 15.9199 16.5677 16.0261 16.5139 16.1467C16.4601 16.2672 16.4342 16.3989 16.4382 16.5313V16.5409C16.4357 16.6764 16.466 16.8104 16.5264 16.9309C16.5852 17.0358 16.665 17.1234 16.7657 17.1936C16.8664 17.2648 16.9854 17.3227 17.1227 17.3674C17.2582 17.4112 17.4057 17.4523 17.5652 17.4906C17.6677 17.5134 17.7511 17.5353 17.8153 17.5563C17.8687 17.5735 17.9202 17.5964 17.969 17.6247C17.9995 17.6424 18.0263 17.6661 18.0479 17.6945C18.0621 17.7191 18.0693 17.7474 18.0693 17.7793V17.7875C18.0705 17.819 18.0628 17.8503 18.0472 17.8774C18.0315 17.9046 18.0086 17.9266 17.981 17.9408C17.902 17.9801 17.8148 17.9989 17.727 17.9955C17.3803 17.9955 17.0576 17.8742 16.759 17.6315L16.2978 18.1885C16.4841 18.3554 16.6966 18.4808 16.9355 18.5648C17.1762 18.6478 17.4302 18.6893 17.6976 18.6893C17.8648 18.6914 18.0314 18.6688 18.1923 18.6222C18.3307 18.5842 18.4603 18.5182 18.5733 18.4279C18.675 18.3439 18.7583 18.239 18.818 18.12" fill="white"/>
</svg>
