<svg width="36" height="36" viewBox="0 0 36 36" fill="none" xmlns="http://www.w3.org/2000/svg">
<g clip-path="url(#clip0_734_12421)">
<path d="M0 4C0 1.79086 1.79086 0 4 0H32C34.2091 0 36 1.79086 36 4V32C36 34.2091 34.2091 36 32 36H4C1.79086 36 0 34.2091 0 32V4Z" fill="white" fill-opacity="0.1"/>
<g clip-path="url(#clip1_734_12421)">
<path d="M-1.92676 24.0451L2.66457 24.8397C3.0967 24.9144 3.52712 24.699 3.72617 24.3082L5.99407 19.8558C6.38004 19.098 7.47562 19.1373 7.80639 19.9207L10.1001 25.3533C10.4367 26.1505 11.5582 26.1729 11.9263 25.3898L15.9382 16.8555C16.2843 16.1193 17.318 16.0824 17.7156 16.7922L23.8743 27.786C24.2751 28.5016 25.3195 28.4569 25.6577 27.7097L37.5471 1.44434" stroke="#CFB5FF" stroke-width="4" stroke-linejoin="round"/>
</g>
</g>
<defs>
<clipPath id="clip0_734_12421">
<path d="M0 4C0 1.79086 1.79086 0 4 0H32C34.2091 0 36 1.79086 36 4V32C36 34.2091 34.2091 36 32 36H4C1.79086 36 0 34.2091 0 32V4Z" fill="white"/>
</clipPath>
<clipPath id="clip1_734_12421">
<rect width="36" height="36" fill="white"/>
</clipPath>
</defs>
</svg>
